<svg xmlns="http://www.w3.org/2000/svg" width="45" height="103" viewBox="0 0 45 103" fill="none">
  <path d="M0.292893 94.2435C-0.0976311 94.634 -0.0976311 95.2671 0.292893 95.6577L6.65685 102.022C7.04738 102.412 7.68054 102.412 8.07107 102.022C8.46159 101.631 8.46159 100.998 8.07107 100.607L2.41421 94.9506L8.07107 89.2937C8.46159 88.9032 8.46159 88.27 8.07107 87.8795C7.68054 87.489 7.04738 87.489 6.65685 87.8795L0.292893 94.2435ZM10.6134 0.271801C10.0776 0.137852 9.53467 0.463613 9.40072 0.999408C9.26677 1.5352 9.59253 2.07814 10.1283 2.21209L10.6134 0.271801ZM4.11116 95.8557C4.6624 95.8217 5.08169 95.3473 5.04767 94.796C5.01365 94.2448 4.53921 93.8255 3.98797 93.8595L4.11116 95.8557ZM9.82129 93.1139C9.2795 93.221 8.92718 93.7471 9.03435 94.2889C9.14152 94.8307 9.6676 95.183 10.2094 95.0759L9.82129 93.1139ZM16.1798 93.433C16.6997 93.2469 16.9704 92.6745 16.7843 92.1545C16.5981 91.6345 16.0257 91.3639 15.5058 91.55L16.1798 93.433ZM20.864 89.1454C20.3796 89.4106 20.2019 90.0183 20.4671 90.5027C20.7323 90.9872 21.3401 91.1649 21.8245 90.8996L20.864 89.1454ZM26.9999 87.5037C27.4361 87.165 27.5152 86.5368 27.1764 86.1006C26.8377 85.6644 26.2095 85.5853 25.7733 85.924L26.9999 87.5037ZM30.1222 81.9679C29.7433 82.3697 29.7619 83.0026 30.1637 83.3815C30.5656 83.7604 31.1985 83.7418 31.5773 83.34L30.1222 81.9679ZM35.475 78.5456C35.7918 78.0932 35.6819 77.4697 35.2295 77.1529C34.7771 76.8361 34.1536 76.946 33.8368 77.3984L35.475 78.5456ZM36.8863 72.3445C36.6328 72.8352 36.8251 73.4385 37.3158 73.6919C37.8065 73.9454 38.4097 73.7531 38.6632 73.2625L36.8863 72.3445ZM41.1427 67.6239C41.3338 67.1057 41.0687 66.5307 40.5505 66.3396C40.0324 66.1485 39.4574 66.4137 39.2663 66.9318L41.1427 67.6239ZM40.9899 61.2645C40.8595 61.8011 41.1888 62.3419 41.7255 62.4724C42.2621 62.6028 42.8029 62.2735 42.9333 61.7368L40.9899 61.2645ZM44.0558 55.6931C44.1272 55.1455 43.7411 54.6436 43.1935 54.5722C42.6458 54.5008 42.144 54.8869 42.0726 55.4346L44.0558 55.6931ZM42.528 49.5186C42.5146 50.0707 42.9512 50.5292 43.5033 50.5427C44.0555 50.5562 44.514 50.1195 44.5274 49.5674L42.528 49.5186ZM44.3568 43.4263C44.3127 42.8758 43.8306 42.4653 43.2801 42.5094C42.7296 42.5536 42.3191 43.0356 42.3632 43.5862L44.3568 43.4263ZM41.5778 37.7056C41.6799 38.2483 42.2027 38.6055 42.7455 38.5033C43.2882 38.4012 43.6454 37.8784 43.5432 37.3356L41.5778 37.7056ZM42.0776 31.3652C41.9164 30.837 41.3574 30.5395 40.8292 30.7007C40.301 30.862 40.0035 31.4209 40.1647 31.9491L42.0776 31.3652ZM38.112 26.3942C38.3337 26.9 38.9234 27.1304 39.4293 26.9088C39.9351 26.6872 40.1656 26.0974 39.9439 25.5916L38.112 26.3942ZM37.1283 20.1122C36.8453 19.6379 36.2315 19.4828 35.7572 19.7657C35.2829 20.0487 35.1278 20.6625 35.4107 21.1368L37.1283 20.1122ZM32.0578 16.2798C32.4017 16.712 33.0308 16.7836 33.463 16.4397C33.8952 16.0958 33.9668 15.4667 33.6229 15.0345L32.0578 16.2798ZM29.4434 10.4835C29.0416 10.1047 28.4087 10.1234 28.0299 10.5252C27.651 10.9271 27.6697 11.56 28.0716 11.9388L29.4434 10.4835ZM23.5064 8.23187C23.9599 8.54714 24.583 8.4351 24.8983 7.98164C25.2136 7.52818 25.1015 6.90501 24.6481 6.58974L23.5064 8.23187ZM19.3135 3.44561C18.8181 3.20143 18.2186 3.40507 17.9744 3.90044C17.7302 4.39581 17.9338 4.99534 18.4292 5.23952L19.3135 3.44561ZM12.9837 3.03084C13.509 3.20143 14.0731 2.9139 14.2437 2.38862C14.4143 1.86334 14.1267 1.29923 13.6015 1.12864L12.9837 3.03084ZM1 95.9506C2.05542 95.9506 3.09249 95.9186 4.11116 95.8557L3.98797 93.8595C3.011 93.9198 2.01501 93.9506 1 93.9506V95.9506ZM10.2094 95.0759C12.2915 94.664 14.2819 94.1123 16.1798 93.433L15.5058 91.55C13.7024 92.1955 11.8076 92.721 9.82129 93.1139L10.2094 95.0759ZM21.8245 90.8996C23.6599 89.8947 25.3852 88.7574 26.9999 87.5037L25.7733 85.924C24.2411 87.1136 22.6047 88.1923 20.864 89.1454L21.8245 90.8996ZM31.5773 83.34C32.9925 81.8392 34.2918 80.2353 35.475 78.5456L33.8368 77.3984C32.707 79.0117 31.4686 80.5401 30.1222 81.9679L31.5773 83.34ZM38.6632 73.2625C39.6022 71.4448 40.4287 69.5599 41.1427 67.6239L39.2663 66.9318C38.5798 68.7932 37.7862 70.6025 36.8863 72.3445L38.6632 73.2625ZM42.9333 61.7368C43.4158 59.7518 43.79 57.7323 44.0558 55.6931L42.0726 55.4346C41.8159 57.4031 41.4549 59.3513 40.9899 61.2645L42.9333 61.7368ZM44.5274 49.5674C44.5773 47.5208 44.5206 45.4689 44.3568 43.4263L42.3632 43.5862C42.5214 45.5592 42.5762 47.5414 42.528 49.5186L44.5274 49.5674ZM43.5432 37.3356C43.1633 35.317 42.6749 33.322 42.0776 31.3652L40.1647 31.9491C40.7401 33.834 41.2111 35.7577 41.5778 37.7056L43.5432 37.3356ZM39.9439 25.5916C39.1177 23.7058 38.1794 21.8741 37.1283 20.1122L35.4107 21.1368C36.4177 22.8248 37.3181 24.5821 38.112 26.3942L39.9439 25.5916ZM33.6229 15.0345C32.3435 13.4265 30.9505 11.9042 29.4434 10.4835L28.0716 11.9388C29.5072 13.2922 30.8359 14.744 32.0578 16.2798L33.6229 15.0345ZM24.6481 6.58974C22.9756 5.42696 21.1974 4.37424 19.3135 3.44561L18.4292 5.23952C20.2229 6.12367 21.9151 7.12554 23.5064 8.23187L24.6481 6.58974ZM13.6015 1.12864C12.6281 0.812548 11.6321 0.526479 10.6134 0.271801L10.1283 2.21209C11.1027 2.45568 12.0545 2.72907 12.9837 3.03084L13.6015 1.12864Z" fill="#40392D"/>
</svg>