<svg width="234" height="177" viewBox="0 0 234 177" fill="none" xmlns="http://www.w3.org/2000/svg">
<g id="Graphics" clip-path="url(#clip0_1008_973)">
<g id="Group 405930">
<path id="Vector" d="M64.599 106.552H34.9713V104.673C36.3422 104.589 39.4476 104.197 40.5667 103.776C42.5251 103.047 43.0007 101.589 43.0007 99.7939V79.2949H21.5703V99.4013C21.5703 101.196 22.2138 102.57 24.0043 103.383C24.9835 103.804 28.2288 104.533 29.6836 104.673V106.552H0V104.673C1.45481 104.505 4.61621 104.197 5.59541 103.776C7.5538 103.047 8.02941 101.589 8.02941 99.7939V58.4032C8.02941 56.6085 7.5538 55.2344 5.59541 54.4212C4.30847 53.8603 1.45481 53.0471 0 52.8788V51H29.7116V52.8788C28.3407 53.0471 25.4032 53.5238 24.0323 54.0286C22.0739 54.6736 21.5983 56.2159 21.5983 58.0106V76.07H43.0287V58.4313C43.0287 56.6365 42.4692 55.2625 40.5947 54.4492C39.3077 53.8884 36.4541 53.0751 34.9993 52.9069V51.028H64.627V52.9069C63.2561 53.0751 60.4024 53.636 59.1155 54.0566C57.1011 54.7016 56.5976 56.2439 56.5976 58.0387V99.4574C56.5976 101.252 57.241 102.542 59.1155 103.439C60.0947 103.916 63.2561 104.589 64.627 104.729V106.608L64.599 106.552Z" fill="#40392D"/>
<path id="Vector_2" d="M106.368 87.5111C106.368 98.8122 99.4579 107.758 85.917 107.758C74.95 107.758 65.9414 100.186 65.9414 87.7354C65.9414 76.0978 73.803 67.8813 86.2248 67.8813C98.6466 67.8813 106.34 76.0978 106.34 87.483L106.368 87.5111ZM93.303 87.4269C93.303 78.874 92.3238 69.8443 86.3087 69.8443C79.9859 69.8443 79.0906 79.4348 79.0906 87.2587C79.0906 97.0175 80.4615 105.655 86.2248 105.655C91.988 105.655 93.275 97.2699 93.275 87.4269H93.303Z" fill="#40392D"/>
<path id="Vector_3" d="M155.301 106.552H133.786V104.841C134.849 104.757 135.969 104.589 136.78 104.196C137.843 103.635 138.011 102.402 138.011 100.607V81.0052C138.011 75.3967 136.136 73.1253 133.311 73.1253C129.17 73.1253 127.072 76.21 126.177 78.0047V100.214C126.177 102.009 126.512 103.215 127.547 103.888C128.611 104.533 129.562 104.701 130.625 104.869V106.58H108.943V104.869C110.23 104.785 111.293 104.617 112.356 104.224C113.811 103.664 114.398 102.43 114.398 100.635V76.5465C114.398 74.8359 113.503 73.0412 112.3 72.2279C111.321 71.583 109.698 71.0782 108.411 70.9941V69.3676L125.617 68.3861L126.177 68.947V74.5555H126.344C129.254 71.4708 132.024 67.8813 138.85 67.8813C146.236 67.8813 149.957 72.929 149.957 80.6407V100.242C149.957 102.037 150.349 103.159 151.832 103.832C152.979 104.309 153.874 104.645 155.329 104.813V106.524L155.301 106.552Z" fill="#40392D"/>
<path id="Vector_4" d="M193.433 96.6252C190.439 102.794 184.508 107.758 176.395 107.758C163.078 107.758 156.923 98.8125 156.923 87.5955C156.923 77.1076 163.581 67.9097 175.835 67.9097C188.089 67.9097 192.566 75.6494 192.566 84.0902V85.2399H169.596C169.596 85.2399 169.596 86.1373 169.596 86.2214C169.596 95.8119 172.59 102.907 180.48 102.907C185.431 102.907 188.929 101.112 191.838 95.4193L193.461 96.6532L193.433 96.6252ZM179.948 82.8002C179.948 76.4626 179.864 70.0409 175.248 70.0409C171.527 70.0409 169.82 74.752 169.568 82.9685L179.948 82.8002Z" fill="#40392D"/>
<path id="Vector_5" d="M234 70.6018C231.902 71.0224 229.3 71.7515 227.901 75.3129C224.992 82.7161 216.543 104.673 215.172 108.263C210.472 120.125 206.331 125.088 199.673 125.088C196.847 125.088 192.287 123.294 192.287 118.106C192.287 115.189 194.721 112.161 198.302 112.161C200.484 112.161 203.729 113.31 203.729 117.124C203.729 117.685 203.477 119.9 203.394 120.377C207.534 119.171 210.388 113.955 212.486 108.487C210.612 104.505 198.526 77.1637 197.379 74.6399C196.399 72.5367 193.881 70.9663 191.615 70.6579V68.9473H213.857V70.6579C212.15 70.742 209.381 71.1346 209.381 72.5367C209.381 72.7891 209.716 73.6023 209.94 74.2473C210.584 75.8738 216.683 90.0352 218.221 93.5125L218.389 93.2601C219.592 90.568 223.089 80.3325 224.404 77.1637C224.796 75.7896 225.132 74.4716 225.132 73.5743C225.132 71.7796 220.516 70.7981 219.117 70.5737V68.9473H233.972V70.5737L234 70.6018Z" fill="#40392D"/>
</g>
<g id="Group 405929">
<path id="Vector_6" d="M45.3226 157.749C45.3226 161.311 44.0357 165.068 41.154 167.564C39.1677 169.275 36.8456 170.256 34.1318 170.256C32.1175 170.256 30.5787 169.639 29.2638 168.349C27.8929 167.003 26.8857 165.04 26.8857 162.601C26.8857 159.207 28.2286 155.674 30.9144 153.15C32.9568 151.243 35.4467 150.234 37.9926 150.234C40.0629 150.234 41.7416 150.823 43.1124 152.225C44.3434 153.487 45.3226 155.394 45.3226 157.749ZM42.3291 157.16C42.3291 153.795 41.182 151.075 37.7968 151.075C35.5307 151.075 33.5723 152.477 32.3133 154.496C30.8585 156.824 29.8793 160.049 29.8793 163.358C29.8793 166.835 31.2222 169.415 34.4395 169.415C36.5378 169.415 38.2724 168.321 39.5873 166.499C41.2659 164.143 42.3291 160.525 42.3291 157.16Z" fill="#40392D"/>
<path id="Vector_7" d="M58.1644 158.59C58.1644 159.46 57.6888 160.357 56.7096 160.357C55.7304 160.357 55.3387 159.824 55.3387 159.179C55.3387 158.534 55.9822 158.226 55.9822 157.974C55.9822 157.721 55.9822 157.609 55.5625 157.609C54.5833 157.609 53.2964 159.74 52.485 161.226L49.8832 169.807H47.3652L50.1629 160.834C50.3588 160.245 50.6945 158.899 50.6945 158.562C50.6945 157.749 50.4427 157.553 49.9111 157.553C48.5962 157.553 47.7849 159.039 46.8896 161.339L46.3301 161.142C47.3373 158.675 48.3164 156.88 50.3028 156.88C51.5058 156.88 52.6809 157.665 52.6809 159.712H52.7928C53.716 158.31 54.5553 156.88 56.3459 156.88C57.5209 156.88 58.1644 157.721 58.1644 158.59Z" fill="#40392D"/>
<path id="Vector_8" d="M72.3486 165.882C71.3414 168.377 70.3342 170.116 68.3478 170.116C66.6692 170.116 65.718 169.387 65.718 167.508H65.6061C64.543 169.022 63.284 170.2 61.6893 170.2C59.8148 170.2 57.8564 169.275 57.8564 165.769C57.8564 162.881 60.5982 156.88 65.6341 156.88C66.8371 156.88 67.9002 157.525 68.152 158.927H68.2359L68.8794 157.048H71.3973L68.2359 166.218C67.9562 167.003 67.7883 167.957 67.7883 168.293C67.7883 169.219 68.2079 169.415 68.7395 169.415C70.0544 169.415 70.8658 168.097 71.789 165.713L72.3486 165.882ZM67.9002 159.965C67.5645 158.254 66.893 157.469 65.5501 157.469C62.6685 157.469 60.4863 163.021 60.4863 166.358C60.4863 168.938 61.3816 169.247 62.109 169.247C63.7036 169.247 64.9067 167.957 65.7739 166.498L67.9002 159.965Z" fill="#40392D"/>
<path id="Vector_9" d="M88.9949 165.882C87.9877 168.377 86.9805 170.116 84.9942 170.116C83.8191 170.116 82.0006 169.639 82.0006 167.929C82.0006 167.256 82.2524 166.555 82.6161 165.601L84.2668 161.226C84.5185 160.553 84.7983 159.656 84.7983 159.123C84.7983 157.946 84.1548 157.777 83.4274 157.777C81.9167 157.777 80.322 159.376 79.3708 161.255L76.5731 169.807H74.0272L77.0487 160.834C77.2725 160.161 77.5802 158.899 77.5802 158.562C77.5802 157.777 77.3284 157.553 76.7969 157.553C75.482 157.553 74.6986 158.955 73.7754 161.339L73.2158 161.142C74.223 158.675 75.2022 156.88 77.1886 156.88C78.3916 156.88 79.7624 157.329 79.7624 159.432H79.8744C80.8536 158.114 82.2244 156.88 83.8471 156.88C85.7216 156.88 87.0645 158.338 87.0645 160.021C87.0645 160.413 86.7847 161.423 86.5329 162.096L84.9662 166.218C84.6025 167.2 84.3507 167.985 84.3507 168.405C84.3507 169.303 84.8543 169.415 85.3858 169.415C86.7008 169.415 87.5401 168.097 88.4633 165.713L88.9949 165.882Z" fill="#40392D"/>
<path id="Vector_10" d="M103.99 158.198C103.99 158.983 103.431 159.516 102.703 159.516C101.808 159.516 101.668 158.927 101.668 157.777C100.773 157.777 100.353 157.974 99.9336 158.254V158.422C100.269 158.927 100.493 159.684 100.493 160.329C100.493 163.133 97.9192 165.04 95.2614 165.04H93.4988C92.9113 165.321 92.3238 165.657 92.3238 166.414C92.3238 167.452 93.247 167.564 95.3173 167.788C96.1567 167.873 97.8633 168.069 98.4228 168.153C99.8216 168.377 101.165 169.443 101.165 171.294C101.165 174.042 98.4228 176.369 93.1911 176.369C89.7779 176.369 88.0713 175.079 88.0713 173.285C88.0713 171.49 89.7219 170.06 92.7994 169.639V169.443C91.5404 169.191 90.3374 168.742 90.3374 167.508C90.3374 165.797 92.2678 165.096 93.1631 164.816V164.676C91.8202 164.059 91.0369 162.993 91.0369 161.759C91.0369 158.983 93.4988 156.88 96.4924 156.88C98.3668 156.88 99.7097 157.693 100.073 157.693C101.053 157.216 101.528 156.88 102.703 156.88C103.347 156.88 103.99 157.441 103.99 158.198ZM98.9264 171.911C98.9264 171.378 98.5907 170.48 97.8912 170.312C96.4085 169.976 94.8417 169.92 93.3869 169.864C91.4845 170.34 90.4773 171.49 90.4773 173.173C90.4773 174.266 91.3446 175.809 93.8905 175.809C96.996 175.809 98.9264 174.35 98.9264 171.911ZM98.143 159.6C98.143 158.422 97.5275 157.329 96.3245 157.329C94.1423 157.329 93.4988 160.497 93.4988 161.984C93.4988 163.302 94.1703 164.592 95.2054 164.592C97.3037 164.592 98.143 161.311 98.143 159.6Z" fill="#40392D"/>
<path id="Vector_11" d="M113.838 158.759C113.838 161.787 109.25 163.386 106.508 163.806C106.313 164.732 106.089 165.657 106.089 166.442C106.089 168.349 106.704 169.275 108.159 169.275C110.201 169.275 111.544 167.648 112.691 165.517L113.195 165.769C111.46 169.078 109.558 170.2 107.739 170.2C105.753 170.2 103.459 169.275 103.459 165.713C103.459 162.825 106.229 156.88 111.46 156.88C112.719 156.88 113.838 157.497 113.838 158.759ZM111.908 158.927C111.908 158.03 111.572 157.441 110.677 157.441C109.054 157.441 107.404 160.413 106.648 163.217C110.593 162.516 111.908 160.217 111.908 158.927Z" fill="#40392D"/>
<path id="Vector_12" d="M134.01 161.283C134.01 164.199 131.016 170.228 125.981 170.228C123.854 170.228 121.616 169.247 121.616 166.667C121.616 165.517 121.812 164.956 122.036 164.227L125.701 152.73C126.009 151.804 126.121 151.215 126.121 150.851C126.121 150.234 125.617 150.038 125.001 149.953C124.302 149.869 123.994 149.869 123.323 149.841V149.28L129.422 149L126.121 159.067H126.204C127.016 158.142 128.359 156.88 129.953 156.88C131.828 156.88 134.01 157.777 134.01 161.283ZM131.38 160.722C131.38 158.142 130.261 157.833 129.534 157.833C127.855 157.833 126.624 159.095 125.729 160.413L123.742 166.639C123.742 169.219 125.113 169.611 126.065 169.611C128.974 169.611 131.38 164.031 131.38 160.722Z" fill="#40392D"/>
<path id="Vector_13" d="M143.858 149L138.347 166.274C138.067 167.115 137.815 167.985 137.815 168.405C137.815 169.303 138.291 169.415 138.795 169.415C140.137 169.415 141.005 168.097 141.928 165.713L142.432 165.882C141.424 168.377 140.417 170.116 138.431 170.116C137.228 170.116 135.577 169.667 135.577 167.957C135.577 167.284 135.829 166.442 136.081 165.601L140.137 152.73C140.445 151.776 140.529 151.215 140.529 150.851C140.529 150.234 140.026 150.038 139.41 149.953C138.711 149.869 138.403 149.869 137.731 149.841V149.28L143.858 149Z" fill="#40392D"/>
<path id="Vector_14" d="M155.552 161.815C155.552 164.816 152.978 170.2 147.719 170.2C145.816 170.2 143.578 168.798 143.578 165.293C143.578 162.292 146.208 156.88 151.412 156.88C153.314 156.88 155.552 158.31 155.552 161.815ZM152.922 161.198C152.922 158.619 151.999 157.357 150.992 157.357C148.054 157.357 146.208 162.516 146.208 165.825C146.208 168.405 147.047 169.667 148.138 169.667C151.272 169.667 152.922 164.535 152.922 161.198Z" fill="#40392D"/>
<path id="Vector_15" d="M166.52 159.824C166.52 160.862 166.016 161.591 165.205 161.591C164.505 161.591 163.834 161.255 163.834 160.441C163.834 159.32 165.289 158.983 165.401 158.675C165.345 158.31 164.897 157.441 163.023 157.441C162.155 157.441 160.784 158.142 160.784 159.768C160.784 162.488 165.401 162.657 165.401 166.246C165.401 168.265 163.078 170.2 160.589 170.2C157.511 170.2 156.42 168.293 156.42 166.947C156.42 165.91 157.175 165.012 157.959 165.012C159.19 165.012 159.441 165.797 159.441 166.246C159.441 166.751 159.162 167.48 158.21 167.48C157.707 167.48 157.455 167.48 157.455 167.873C157.455 168.742 158.854 169.611 160.281 169.611C161.903 169.611 163.386 168.91 163.386 167.396C163.386 164.199 158.714 164.199 158.714 160.694C158.714 158.899 160.784 156.88 163.05 156.88C166.1 156.88 166.52 159.123 166.52 159.824Z" fill="#40392D"/>
<path id="Vector_16" d="M177.29 159.824C177.29 160.862 176.787 161.591 175.975 161.591C175.276 161.591 174.604 161.255 174.604 160.441C174.604 159.32 176.059 158.983 176.171 158.675C176.115 158.31 175.667 157.441 173.793 157.441C172.926 157.441 171.555 158.142 171.555 159.768C171.555 162.488 176.171 162.657 176.171 166.246C176.171 168.265 173.849 170.2 171.359 170.2C168.282 170.2 167.19 168.293 167.19 166.947C167.19 165.91 167.946 165.012 168.729 165.012C169.96 165.012 170.212 165.797 170.212 166.246C170.212 166.751 169.932 167.48 168.981 167.48C168.477 167.48 168.226 167.48 168.226 167.873C168.226 168.742 169.624 169.611 171.051 169.611C172.674 169.611 174.157 168.91 174.157 167.396C174.157 164.199 169.485 164.199 169.485 160.694C169.485 158.899 171.555 156.88 173.821 156.88C176.87 156.88 177.29 159.123 177.29 159.824Z" fill="#40392D"/>
<path id="Vector_17" d="M190.551 161.815C190.551 164.816 187.977 170.2 182.718 170.2C180.815 170.2 178.577 168.798 178.577 165.293C178.577 162.292 181.207 156.88 186.411 156.88C188.313 156.88 190.551 158.31 190.551 161.815ZM187.921 161.198C187.921 158.619 186.998 157.357 185.991 157.357C183.053 157.357 181.207 162.516 181.207 165.825C181.207 168.405 182.046 169.667 183.137 169.667C186.271 169.667 187.921 164.535 187.921 161.198Z" fill="#40392D"/>
<path id="Vector_18" d="M214.976 165.882C213.969 168.377 212.962 170.116 210.975 170.116C209.8 170.116 207.982 169.639 207.982 167.929C207.982 167.256 208.261 166.526 208.597 165.601L210.248 161.226C210.5 160.553 210.779 159.656 210.779 159.123C210.779 157.946 210.052 157.777 209.325 157.777C207.814 157.777 206.667 159.123 205.772 160.441L202.75 169.807H200.176L203.142 160.834C203.31 160.357 203.505 159.656 203.505 159.123C203.505 157.946 202.75 157.777 202.023 157.777C200.512 157.777 198.861 159.656 198.078 161.255L195.28 169.807H192.734L195.756 160.834C195.98 160.161 196.287 158.899 196.287 158.562C196.287 157.749 196.035 157.553 195.504 157.553C194.189 157.553 193.406 158.955 192.482 161.339L191.923 161.142C192.93 158.675 193.909 156.88 195.896 156.88C197.099 156.88 198.469 157.301 198.469 159.432H198.581C199.617 158.03 200.959 156.88 202.554 156.88C204.568 156.88 205.632 158.226 205.716 159.46H205.827C206.779 158.198 208.122 156.88 209.744 156.88C211.619 156.88 213.046 158.338 213.046 160.021C213.046 160.413 212.766 161.423 212.514 162.096L210.947 166.218C210.584 167.171 210.332 167.985 210.332 168.405C210.332 169.303 210.835 169.415 211.367 169.415C212.682 169.415 213.521 168.097 214.444 165.713L214.976 165.882Z" fill="#40392D"/>
</g>
<g id="Group 405928">
<path id="Vector_19" d="M47.4214 20.1063H38.7485V19.4894C39.2521 19.4614 40.567 19.3492 40.9587 19.209C41.4623 19.0407 41.826 18.5079 41.826 17.891V5.29991C41.5182 5.38404 41.0706 5.44012 40.567 5.44012C39.6718 5.44012 38.4408 4.59885 37.4336 3.75758L37.6854 3.28085C38.5247 3.64541 39.5039 3.92583 40.623 3.92583C42.2177 3.92583 43.7284 3.22477 44.5398 2.74805H44.9035C44.7076 3.92583 44.5118 5.69251 44.5118 6.95442V17.7508C44.5118 18.3397 44.8195 18.8725 45.3231 19.0968C45.7428 19.2931 46.9178 19.4614 47.4214 19.4894V20.1063Z" fill="#40392D"/>
<path id="Vector_20" d="M64.2913 11.2171C64.2913 16.9377 60.8222 20.4991 56.9613 20.4991C52.3731 20.4991 49.9111 16.5452 49.9111 12.0023C49.9111 6.25357 53.4362 2.72021 57.2411 2.72021C61.8014 2.72021 64.2913 6.61812 64.2913 11.2171ZM61.2698 11.5816C61.2698 7.09484 59.9829 3.42128 57.1572 3.42128C54.8071 3.42128 52.9327 6.59008 52.9327 11.6377C52.9327 16.2928 54.2476 19.7981 57.0453 19.7981C59.3674 19.7981 61.2698 16.6293 61.2698 11.5816Z" fill="#40392D"/>
<path id="Vector_21" d="M81.4691 11.2171C81.4691 16.9377 77.9999 20.4991 74.1391 20.4991C69.5508 20.4991 67.0889 16.5452 67.0889 12.0023C67.0889 6.25357 70.614 2.72021 74.4189 2.72021C78.9791 2.72021 81.4691 6.61812 81.4691 11.2171ZM78.4476 11.5816C78.4476 7.09484 77.1606 3.42128 74.3349 3.42128C71.9849 3.42128 70.1104 6.59008 70.1104 11.6377C70.1104 16.2928 71.4253 19.7981 74.223 19.7981C76.5451 19.7981 78.4476 16.6293 78.4476 11.5816Z" fill="#40392D"/>
<path id="Vector_22" d="M93.5832 7.23514C93.5832 9.67483 91.3451 11.6378 89.0789 11.6378C86.8128 11.6378 84.6865 10.0955 84.6865 7.26318C84.6865 4.65523 86.9527 2.7203 89.0789 2.7203C91.3451 2.7203 93.5832 4.17851 93.5832 7.23514ZM91.373 7.29122C91.373 4.82348 90.5617 3.39332 89.1069 3.39332C87.6521 3.39332 86.8687 4.93565 86.8687 7.15101C86.8687 9.36636 87.6241 10.9648 89.1629 10.9648C90.3659 10.9648 91.373 9.64679 91.373 7.29122ZM101.529 1.17796L89.5266 22.8548L88.7152 22.4342L100.661 0.757324L101.529 1.17796ZM105.613 16.0966C105.613 18.5643 103.375 20.4992 101.109 20.4992C98.8429 20.4992 96.7167 18.9288 96.7167 16.1246C96.7167 13.5447 98.9828 11.5817 101.109 11.5817C103.375 11.5817 105.613 13.0119 105.613 16.0966ZM103.403 16.1526C103.403 13.741 102.592 12.2547 101.137 12.2547C99.6822 12.2547 98.8989 13.8812 98.8989 16.0124C98.8989 18.2839 99.6542 19.8262 101.193 19.8262C102.396 19.8262 103.403 18.4521 103.403 16.1526Z" fill="#40392D"/>
<path id="Vector_23" d="M127.799 13.6288C127.799 17.3585 125.449 20.4992 121.224 20.4992C117.867 20.4992 114.901 17.9474 114.901 13.8251C114.901 9.70289 117.503 7.06689 121.42 7.06689C125.337 7.06689 127.799 9.89918 127.799 13.6288ZM124.973 13.6288C124.973 10.6844 124.106 7.68383 121.392 7.68383C118.482 7.68383 117.727 10.9087 117.727 13.5727C117.727 16.9098 118.762 19.8262 121.392 19.8262C123.882 19.8262 124.973 16.9939 124.973 13.6288Z" fill="#40392D"/>
<path id="Vector_24" d="M139.605 8.83315C139.605 9.81464 139.074 10.5998 138.123 10.5998C137.227 10.5998 136.612 10.2072 136.612 9.25379C136.612 8.97336 136.808 8.74902 136.808 8.38447C135.381 8.38447 134.346 9.5903 134.01 10.2072V17.947C134.01 18.5639 134.262 19.0126 134.765 19.2089C135.241 19.4052 136.052 19.5173 136.584 19.5454V20.1062H129.478V19.5454C129.981 19.5454 130.317 19.4612 130.709 19.3491C131.24 19.1808 131.464 18.7041 131.464 18.0872V10.039C131.408 9.45008 131.156 8.86119 130.709 8.55272C130.373 8.32838 129.841 8.13209 129.338 8.10405V7.57124L133.814 7.26277L134.01 7.45907V9.36596H134.066C135.269 7.82362 136.668 7.12256 137.843 7.12256C138.71 7.12256 139.605 7.90775 139.605 8.83315Z" fill="#40392D"/>
<path id="Vector_25" d="M154.013 8.41293C154.013 9.22617 153.594 9.78701 152.838 9.78701C151.915 9.78701 151.635 9.17008 151.635 7.9923C150.712 7.9923 150.32 8.16055 149.901 8.46902V8.66532C150.572 9.39442 150.964 10.4881 150.964 11.3294C150.964 13.769 148.53 15.3114 146.236 15.3114H144.613C144.11 15.5638 143.634 15.9003 143.634 16.5172C143.634 17.8913 145.257 17.8352 146.627 17.8913C147.439 17.8913 149.173 18.0315 149.761 18.0595C151.412 18.1437 153.342 19.5178 153.342 21.8733C153.342 24.4532 151.132 26.4442 146.32 26.4442C141.899 26.4442 140.221 25.1543 140.221 23.0231C140.221 21.4527 141.676 20.1347 144.641 20.0506V19.8543C143.55 19.5458 141.703 18.9569 141.703 17.3585C141.703 15.9844 143.27 15.4516 144.193 15.087V14.9188C142.235 14.1336 141.032 12.8436 141.032 11.1891C141.032 8.60923 143.27 7.06689 146.04 7.06689C147.97 7.06689 149.509 7.90817 149.873 7.90817C150.908 7.26319 151.495 7.06689 152.698 7.06689C153.37 7.06689 154.013 7.65579 154.013 8.41293ZM151.104 22.4342C151.104 21.7892 150.992 20.8918 149.677 20.4712C149.061 20.3871 147.858 20.2749 145.341 20.2749C143.354 20.6675 142.599 21.4527 142.599 23.1913C142.599 24.313 143.69 25.7151 146.795 25.7151C149.509 25.7151 151.104 24.6215 151.104 22.4342ZM148.362 11.2452C148.362 9.39442 147.719 7.68383 145.956 7.68383C144.193 7.68383 143.662 9.31029 143.662 11.1611C143.662 13.1521 144.585 14.6664 145.984 14.6664C147.635 14.6664 148.362 13.0399 148.362 11.2452Z" fill="#40392D"/>
<path id="Vector_26" d="M167.862 16.7696C167.694 19.3775 166.631 20.3871 164.897 20.3871C163.582 20.3871 162.882 19.7982 162.435 18.5082H162.351C161.344 19.686 159.889 20.4432 158.21 20.4432C156.28 20.4432 154.965 19.2654 154.965 17.4707C154.965 15.1712 156.308 14.386 157.707 13.8532C159.301 13.2362 161.232 12.7595 162.407 12.0865V10.5161C162.407 10.0114 162.323 7.68383 160.001 7.68383C158.938 7.68383 158.546 8.32881 158.294 8.63727C158.294 9.05791 158.546 9.67484 158.546 10.2918C158.546 10.9087 157.93 11.4976 156.923 11.4976C156 11.4976 155.664 10.7685 155.664 10.0394C155.664 8.35685 158.042 7.06689 160.169 7.06689C162.938 7.06689 164.981 7.48753 164.981 11.2172C164.981 13.6849 164.841 16.5733 164.841 17.4987C164.841 17.9193 165.232 18.9289 166.156 18.9289C167.079 18.9289 167.163 17.8352 167.247 16.7696H167.862ZM162.435 12.8997C159.637 13.769 157.679 14.5542 157.679 17.05C157.679 18.5924 158.378 19.2934 159.581 19.2934C161.036 19.2934 161.651 18.6484 162.323 17.8072L162.435 12.8997Z" fill="#40392D"/>
<path id="Vector_27" d="M183.417 20.1066H176.815V19.5458C177.318 19.5458 177.738 19.4617 178.13 19.3495C178.661 19.1812 178.885 18.7045 178.885 18.0876V11.3294C178.885 9.39442 177.766 8.32881 176.563 8.32881C174.521 8.32881 173.373 9.6468 173.066 10.2918V17.9474C173.066 18.5643 173.318 18.9849 173.821 19.2093C174.241 19.4056 174.66 19.5178 175.136 19.5458V20.1066H168.533V19.5458C169.037 19.5458 169.373 19.4617 169.764 19.3495C170.296 19.1812 170.52 18.7045 170.52 18.0876V10.0394C170.464 9.4505 170.212 8.86161 169.764 8.55315C169.429 8.32881 168.897 8.13251 168.394 8.10447V7.57166L172.87 7.26319L173.066 7.45949V9.36638H173.122C174.185 8.32881 175.248 7.06689 177.654 7.06689C180.256 7.06689 181.459 8.83357 181.459 11.4976V17.9754C181.459 18.5924 181.683 19.013 182.186 19.2373C182.578 19.4056 182.914 19.5178 183.417 19.5458V20.1066Z" fill="#40392D"/>
<path id="Vector_28" d="M191.419 20.1065H184.9V19.5456C185.404 19.5456 185.739 19.4615 186.131 19.3493C186.663 19.1811 186.886 18.6482 186.886 18.0874V10.0392C186.831 9.45031 186.579 8.94555 186.131 8.63708C185.795 8.41274 184.984 8.13232 184.48 8.10427V7.57147L189.237 7.263L189.432 7.4593V17.9191C189.432 18.508 189.684 18.9848 190.188 19.2091C190.635 19.4054 191.055 19.5176 191.419 19.5456V20.1065ZM189.684 1.65451C189.684 2.63599 188.929 3.47727 187.922 3.47727C186.998 3.47727 186.215 2.69208 186.215 1.76668C186.215 0.841274 186.998 0 187.922 0C188.957 0 189.684 0.757147 189.684 1.65451Z" fill="#40392D"/>
<path id="Vector_29" d="M204.121 17.1061C203.086 18.9569 201.155 20.4432 198.945 20.4432C194.888 20.4432 192.874 17.5828 192.874 13.713C192.874 10.2637 195.252 7.06689 199.085 7.06689C201.967 7.06689 203.421 8.60923 203.421 10.3198C203.421 11.2452 202.946 11.8902 201.967 11.8902C201.407 11.8902 200.4 11.5817 200.4 10.4881C200.4 9.31029 200.764 9.28225 200.764 8.74944C200.624 7.93621 200.064 7.73991 199.085 7.73991C197.434 7.73991 195.7 9.22617 195.7 13.4606C195.7 16.7415 197.155 19.2093 199.616 19.2093C201.603 19.2093 202.666 18.34 203.589 16.7135L204.121 17.1061Z" fill="#40392D"/>
</g>
</g>
<defs>
<clipPath id="clip0_1008_973">
<rect width="234" height="177" fill="white"/>
</clipPath>
</defs>
</svg>
